<?xml version="1.0" encoding="UTF-8" standalone="no"?>
<svg
   xmlns:dc="http://purl.org/dc/elements/1.1/"
   xmlns:cc="http://creativecommons.org/ns#"
   xmlns:rdf="http://www.w3.org/1999/02/22-rdf-syntax-ns#"
   xmlns:svg="http://www.w3.org/2000/svg"
   xmlns="http://www.w3.org/2000/svg"
   xmlns:sodipodi="http://sodipodi.sourceforge.net/DTD/sodipodi-0.dtd"
   xmlns:inkscape="http://www.inkscape.org/namespaces/inkscape"
   version="1.0"
   width="39.980061"
   height="39.99987"
   id="svg2"
   sodipodi:docname="shield40_us_pa_belt_red_2.svg"
   inkscape:version="1.0.2 (e86c870879, 2021-01-15, custom)">
  <metadata
     id="metadata847">
    <rdf:RDF>
      <cc:Work
         rdf:about="">
        <dc:format>image/svg+xml</dc:format>
        <dc:type
           rdf:resource="http://purl.org/dc/dcmitype/StillImage" />
        <dc:title></dc:title>
      </cc:Work>
    </rdf:RDF>
  </metadata>
  <sodipodi:namedview
     pagecolor="#ffffff"
     bordercolor="#666666"
     borderopacity="1"
     objecttolerance="10"
     gridtolerance="10"
     guidetolerance="10"
     inkscape:pageopacity="0"
     inkscape:pageshadow="2"
     inkscape:window-width="1187"
     inkscape:window-height="778"
     id="namedview845"
     showgrid="false"
     inkscape:zoom="8.001913"
     inkscape:cx="21.293259"
     inkscape:cy="21.94652"
     inkscape:window-x="128"
     inkscape:window-y="107"
     inkscape:window-maximized="0"
     inkscape:current-layer="layer1" />
  <defs
     id="defs4" />
  <g
     transform="translate(-12.934511,-1572.8042)"
     id="layer1">
    <path
       d="m 52.479173,1592.9473 a 19.554946,19.55516 89.993391 1 1 -39.109266,-0.2864 19.554946,19.55516 89.993391 1 1 39.109266,0.2864 z"
       id="path2390"
       style="opacity:1;fill:#b01c2e;fill-opacity:1;stroke:#ffffff;stroke-width:0.869565;stroke-linecap:square;stroke-linejoin:round;stroke-miterlimit:4;stroke-dasharray:none;stroke-dashoffset:0;stroke-opacity:1" />
    <path
       d="m 23.500606,1598.9192 -1.971406,-4.8006 h -3.267115 v 4.8006 h -2.19033 v -12.2302 h 5.621774 c 0.450463,0 0.833899,0.037 1.150312,0.1094 0.316397,0.073 0.632803,0.2073 0.949217,0.4018 0.584153,0.3163 1.046599,0.7606 1.387339,1.3325 0.34072,0.5718 0.511084,1.2048 0.511097,1.8985 -1.3e-5,0.6936 -0.173441,1.3235 -0.520287,1.8892 -0.346869,0.5657 -0.836703,1.0191 -1.469503,1.36 l 2.244919,5.2384 z m 0,-8.4877 c -8e-6,-0.4746 -0.15821,-0.8517 -0.474608,-1.1318 -0.316415,-0.2797 -0.748315,-0.4197 -1.295703,-0.4197 h -3.46821 v 3.0483 h 3.46821 c 0.547388,0 0.979288,-0.1374 1.295703,-0.4108 0.316398,-0.274 0.4746,-0.6359 0.474608,-1.086 z m 4.906519,8.4877 v -12.2302 h 8.925651 v 2.191 h -6.698557 v 2.2634 h 3.650364 v 2.2449 h -3.650364 v 3.3405 h 6.918034 v 2.1904 z m 21.3702,-6.133 c -1.2e-5,1.2291 -0.249478,2.3002 -0.748401,3.2128 -0.498944,0.9125 -1.235086,1.6426 -2.208435,2.1901 -0.425966,0.2435 -0.888413,0.4261 -1.387337,0.5477 -0.498939,0.1219 -0.99778,0.1824 -1.496523,0.1824 h -3.942817 v -12.2302 h 3.942817 c 1.046509,0 2.020051,0.2559 2.920627,0.7673 0.948836,0.5473 1.672724,1.2683 2.171668,2.1627 0.498923,0.8944 0.748389,1.9502 0.748401,3.1672 z m -2.190331,0 c -9e-6,-0.8274 -0.149021,-1.521 -0.447036,-2.0809 -0.298031,-0.5599 -0.751377,-1.0101 -1.360043,-1.3505 -0.559659,-0.3166 -1.174084,-0.4748 -1.843286,-0.4748 h -1.715721 v 7.849 h 1.715721 c 0.644689,0 1.234794,-0.1585 1.770314,-0.4746 1.25336,-0.6573 1.880042,-1.8134 1.880051,-3.4682 z"
       id="text3181"
       style="fill:#ffffff;fill-opacity:1;stroke:none;stroke-width:0.13913px;stroke-linecap:butt;stroke-linejoin:miter;stroke-opacity:1" />
  </g>
</svg>
