<?xml version="1.0" encoding="UTF-8" standalone="no"?>
<svg
   xmlns:dc="http://purl.org/dc/elements/1.1/"
   xmlns:cc="http://creativecommons.org/ns#"
   xmlns:rdf="http://www.w3.org/1999/02/22-rdf-syntax-ns#"
   xmlns:svg="http://www.w3.org/2000/svg"
   xmlns="http://www.w3.org/2000/svg"
   xmlns:sodipodi="http://sodipodi.sourceforge.net/DTD/sodipodi-0.dtd"
   xmlns:inkscape="http://www.inkscape.org/namespaces/inkscape"
   version="1.1"
   width="38.845818"
   height="31.63879"
   xml:space="preserve"
   id="pennsylvaniaTurnpike"
   sodipodi:docname="shield40_us_pa_turnpike_noref.svg"
   inkscape:version="1.0.2 (e86c870879, 2021-01-15, custom)"
   inkscape:export-filename="C:\Users\zelon\Downloads\pa.png"
   inkscape:export-xdpi="48"
   inkscape:export-ydpi="48"><metadata
   id="metadata1497"><rdf:RDF><cc:Work
       rdf:about=""><dc:format>image/svg+xml</dc:format><dc:type
         rdf:resource="http://purl.org/dc/dcmitype/StillImage" /><dc:title></dc:title></cc:Work></rdf:RDF></metadata><defs
   id="defs1495" /><sodipodi:namedview
   pagecolor="#ffffff"
   bordercolor="#666666"
   borderopacity="1"
   objecttolerance="10"
   gridtolerance="10"
   guidetolerance="10"
   inkscape:pageopacity="0"
   inkscape:pageshadow="2"
   inkscape:window-width="1920"
   inkscape:window-height="1001"
   id="namedview1493"
   showgrid="false"
   inkscape:zoom="6.7119901"
   inkscape:cx="27.109972"
   inkscape:cy="9.5645221"
   inkscape:window-x="-9"
   inkscape:window-y="-9"
   inkscape:window-maximized="1"
   inkscape:current-layer="pennsylvaniaTurnpike" />
    <!-- Generated by PaintCode - http://www.paintcodeapp.com -->
    <path
   id="pennsylvaniaTurnpike-keystone"
   stroke="#ffffff"
   stroke-width="2.00001"
   stroke-linejoin="round"
   stroke-miterlimit="4"
   fill="#006b54"
   d="M 7.096741,1.5 7.8748047,6.0372028 H 1.7321964 L 5.2130078,30.138791 H 33.63281 L 37.113621,6.0372028 H 30.971012 L 31.749076,1.5 Z m 0,0"
   style="stroke:#ffffff;stroke-width:3;stroke-linejoin:miter;stroke-miterlimit:4;stroke-dasharray:none;stroke-opacity:1" />
    
    
<g
   aria-label="TURN
PIKE"
   transform="scale(0.84622924,1.1817129)"
   id="text2722"
   style="font-style:normal;font-weight:normal;font-size:9.4422px;line-height:0.95;font-family:sans-serif;fill:#ffffff;fill-opacity:1;stroke:none;stroke-width:0.999996"><path
     d="M 14.20562,8.8203708 H 12.061761 V 14.35752 H 10.291349 V 8.8203708 H 8.1474902 V 7.4925614 H 14.20562 Z"
     style="font-style:normal;font-variant:normal;font-weight:bold;font-stretch:normal;font-size:9.4422px;font-family:sans-serif;-inkscape-font-specification:'sans-serif, Bold';font-variant-ligatures:normal;font-variant-caps:normal;font-variant-numeric:normal;font-variant-east-asian:normal;text-align:center;text-anchor:middle;fill:#ffffff;fill-opacity:1;stroke:none;stroke-width:0.999996;stroke-opacity:1"
     id="path2726" /><path
     d="m 21.282659,11.872488 q 0,1.272484 -0.774555,1.95022 -0.774555,0.677736 -2.282172,0.677736 -1.507617,0 -2.282173,-0.677736 -0.769945,-0.677736 -0.769945,-1.945609 V 7.4925614 h 1.779634 v 4.2831076 q 0,0.714619 0.299679,1.065013 0.299679,0.350394 0.972805,0.350394 0.663904,0 0.968194,-0.336562 0.3089,-0.336563 0.3089,-1.078845 V 7.4925614 h 1.779633 z"
     style="font-style:normal;font-variant:normal;font-weight:bold;font-stretch:normal;font-size:9.4422px;font-family:sans-serif;-inkscape-font-specification:'sans-serif, Bold';font-variant-ligatures:normal;font-variant-caps:normal;font-variant-numeric:normal;font-variant-east-asian:normal;text-align:center;text-anchor:middle;fill:#ffffff;fill-opacity:1;stroke:none;stroke-width:0.999996;stroke-opacity:1"
     id="path2728" /><path
     d="m 26.787535,9.5949262 q 0,-0.2581851 -0.10604,-0.4426031 -0.106041,-0.184418 -0.364226,-0.2904583 -0.179807,-0.073767 -0.419551,-0.087598 -0.239743,-0.018442 -0.557864,-0.018442 h -0.640852 v 1.8487905 h 0.544033 q 0.424161,0 0.710009,-0.04149 0.285848,-0.0415 0.479487,-0.189029 0.184418,-0.142924 0.267406,-0.31351 0.0876,-0.1751975 0.0876,-0.4656558 z M 29.549194,14.35752 H 27.386893 L 25.515051,11.840215 H 24.699002 V 14.35752 H 22.93781 V 7.4925614 h 2.969129 q 0.60858,0 1.046572,0.069157 0.437993,0.069157 0.82066,0.2996792 0.387278,0.2305224 0.61319,0.5993583 0.230522,0.3642255 0.230522,0.9174794 0,0.7607239 -0.355004,1.2402109 -0.350394,0.479487 -1.005078,0.797608 z"
     style="font-style:normal;font-variant:normal;font-weight:bold;font-stretch:normal;font-size:9.4422px;font-family:sans-serif;-inkscape-font-specification:'sans-serif, Bold';font-variant-ligatures:normal;font-variant-caps:normal;font-variant-numeric:normal;font-variant-east-asian:normal;text-align:center;text-anchor:middle;fill:#ffffff;fill-opacity:1;stroke:none;stroke-width:0.999996;stroke-opacity:1"
     id="path2730" /><path
     d="M 36.566299,14.35752 H 34.860433 L 31.946629,9.6456411 V 14.35752 H 30.323751 V 7.4925614 h 2.116196 l 2.503474,3.9327126 V 7.4925614 h 1.622878 z"
     style="font-style:normal;font-variant:normal;font-weight:bold;font-stretch:normal;font-size:9.4422px;font-family:sans-serif;-inkscape-font-specification:'sans-serif, Bold';font-variant-ligatures:normal;font-variant-caps:normal;font-variant-numeric:normal;font-variant-east-asian:normal;text-align:center;text-anchor:middle;fill:#ffffff;fill-opacity:1;stroke:none;stroke-width:0.999996;stroke-opacity:1"
     id="path2732" /><path
     d="m 16.340258,18.629562 q 0,0.461045 -0.161366,0.903648 -0.161365,0.437993 -0.461044,0.737672 -0.41033,0.405719 -0.91748,0.61319 -0.502539,0.20747 -1.254042,0.20747 h -1.101897 v 2.236068 h -1.770413 v -6.864959 h 2.913804 q 0.654684,0 1.101897,0.115261 0.451824,0.110651 0.797608,0.336563 0.414941,0.272017 0.631632,0.696178 0.221301,0.424161 0.221301,1.018909 z m -1.830348,0.04149 q 0,-0.290458 -0.156755,-0.497928 -0.156756,-0.212081 -0.364226,-0.295069 -0.276627,-0.110651 -0.539422,-0.119872 -0.262796,-0.01383 -0.700789,-0.01383 h -0.304289 v 2.05626 h 0.507149 q 0.451824,0 0.742282,-0.05532 0.295069,-0.05533 0.493318,-0.221302 0.170587,-0.147534 0.244354,-0.350394 0.07838,-0.20747 0.07838,-0.502539 z"
     style="font-style:normal;font-variant:normal;font-weight:bold;font-stretch:normal;font-size:9.4422px;font-family:sans-serif;-inkscape-font-specification:'sans-serif, Bold';font-variant-ligatures:normal;font-variant-caps:normal;font-variant-numeric:normal;font-variant-east-asian:normal;text-align:center;text-anchor:middle;fill:#ffffff;fill-opacity:1;stroke:none;stroke-width:0.999996;stroke-opacity:1"
     id="path2734" /><path
     d="M 21.305712,23.32761 H 17.2854 v -1.217159 h 1.12495 V 17.67981 H 17.2854 v -1.217159 h 4.020312 v 1.217159 h -1.12495 v 4.430641 h 1.12495 z"
     style="font-style:normal;font-variant:normal;font-weight:bold;font-stretch:normal;font-size:9.4422px;font-family:sans-serif;-inkscape-font-specification:'sans-serif, Bold';font-variant-ligatures:normal;font-variant-caps:normal;font-variant-numeric:normal;font-variant-east-asian:normal;text-align:center;text-anchor:middle;fill:#ffffff;fill-opacity:1;stroke:none;stroke-width:0.999996;stroke-opacity:1"
     id="path2736" /><path
     d="m 29.157307,23.32761 h -2.171522 l -2.05165,-2.747828 -0.41494,0.502539 v 2.245289 h -1.770413 v -6.864959 h 1.770413 v 3.107443 l 2.452759,-3.107443 h 2.05165 l -2.683282,3.176599 z"
     style="font-style:normal;font-variant:normal;font-weight:bold;font-stretch:normal;font-size:9.4422px;font-family:sans-serif;-inkscape-font-specification:'sans-serif, Bold';font-variant-ligatures:normal;font-variant-caps:normal;font-variant-numeric:normal;font-variant-east-asian:normal;text-align:center;text-anchor:middle;fill:#ffffff;fill-opacity:1;stroke:none;stroke-width:0.999996;stroke-opacity:1"
     id="path2738" /><path
     d="m 34.994136,23.32761 h -4.965454 v -6.864959 h 4.965454 v 1.327809 h -3.204262 v 1.184886 h 2.973739 v 1.327809 H 31.789874 V 21.9998 h 3.204262 z"
     style="font-style:normal;font-variant:normal;font-weight:bold;font-stretch:normal;font-size:9.4422px;font-family:sans-serif;-inkscape-font-specification:'sans-serif, Bold';font-variant-ligatures:normal;font-variant-caps:normal;font-variant-numeric:normal;font-variant-east-asian:normal;text-align:center;text-anchor:middle;fill:#ffffff;fill-opacity:1;stroke:none;stroke-width:0.999996;stroke-opacity:1"
     id="path2740" /></g></svg>
