<?xml version="1.0" encoding="UTF-8" standalone="no"?>
<svg
   xmlns:dc="http://purl.org/dc/elements/1.1/"
   xmlns:cc="http://creativecommons.org/ns#"
   xmlns:rdf="http://www.w3.org/1999/02/22-rdf-syntax-ns#"
   xmlns:svg="http://www.w3.org/2000/svg"
   xmlns="http://www.w3.org/2000/svg"
   xmlns:sodipodi="http://sodipodi.sourceforge.net/DTD/sodipodi-0.dtd"
   xmlns:inkscape="http://www.inkscape.org/namespaces/inkscape"
   version="1.1"
   width="40"
   height="40"
   xml:space="preserve"
   id="interstate"
   sodipodi:docname="shield40_us_interstate.svg"
   inkscape:version="1.0.2 (e86c870879, 2021-01-15, custom)"><metadata
   id="metadata13"><rdf:RDF><cc:Work
       rdf:about=""><dc:format>image/svg+xml</dc:format><dc:type
         rdf:resource="http://purl.org/dc/dcmitype/StillImage" /><dc:title></dc:title></cc:Work></rdf:RDF></metadata><defs
   id="defs11" /><sodipodi:namedview
   pagecolor="#ffffff"
   bordercolor="#666666"
   borderopacity="1"
   objecttolerance="10"
   gridtolerance="10"
   guidetolerance="10"
   inkscape:pageopacity="0"
   inkscape:pageshadow="2"
   inkscape:window-width="1661"
   inkscape:window-height="940"
   id="namedview9"
   showgrid="false"
   inkscape:zoom="2.3730469"
   inkscape:cx="202.41078"
   inkscape:cy="114.79316"
   inkscape:window-x="0"
   inkscape:window-y="0"
   inkscape:window-maximized="0"
   inkscape:current-layer="interstate" />
    <!-- Generated by PaintCode - http://www.paintcodeapp.com -->
    
    <g
   id="g840"
   inkscape:export-filename="C:\Users\zelon\Downloads\40px_interstate.png"
   inkscape:export-xdpi="41.91"
   inkscape:export-ydpi="41.91"
   transform="matrix(0.43660601,0,0,0.43660495,20,19.78388)"><path
     id="interstate-shield"
     stroke="#ffffff"
     stroke-width="2"
     stroke-linecap="round"
     stroke-linejoin="round"
     stroke-miterlimit="4"
     fill="#003f9b"
     d="m 0,-37 c -11.5,3.76 -27.74,3.81 -39.24,0 -6.03,16.63 -8.58,43.09 0,58 C -32.24,33.38 -10,36 0,37.99 10,36 32.23,33.38 39.24,21 c 8.58,-14.91 6.03,-41.37 0,-58 -11.5,3.81 -27.74,3.76 -39.24,0 z m 0,0" /><path
     id="interstate-crown"
     stroke="#ffffff"
     stroke-width="2"
     stroke-linejoin="round"
     stroke-miterlimit="4"
     fill="#af1e2d"
     d="m -39.24,-36.88 c 11.5,3.69 27.74,3.79 39.24,-0.12 11.5,3.91 27.74,3.81 39.24,0.12 1.4,3.16 3,10.18 3,10.18 h -84.48 c 0,0 1.6,-7.02 3,-10.18 z m 0,0" /></g>
    
    
</svg>
