<?xml version="1.0" encoding="UTF-8" standalone="no"?>
<svg
   xmlns:dc="http://purl.org/dc/elements/1.1/"
   xmlns:cc="http://creativecommons.org/ns#"
   xmlns:rdf="http://www.w3.org/1999/02/22-rdf-syntax-ns#"
   xmlns:svg="http://www.w3.org/2000/svg"
   xmlns="http://www.w3.org/2000/svg"
   xmlns:sodipodi="http://sodipodi.sourceforge.net/DTD/sodipodi-0.dtd"
   xmlns:inkscape="http://www.inkscape.org/namespaces/inkscape"
   version="1.1"
   width="40"
   height="32.400555"
   xml:space="preserve"
   id="uSRoute"
   sodipodi:docname="U.S. Route.svg"
   inkscape:version="1.0.2 (e86c870879, 2021-01-15, custom)"><metadata
   id="metadata12"><rdf:RDF><cc:Work
       rdf:about=""><dc:format>image/svg+xml</dc:format><dc:type
         rdf:resource="http://purl.org/dc/dcmitype/StillImage" /></cc:Work></rdf:RDF></metadata><defs
   id="defs10" /><sodipodi:namedview
   pagecolor="#ffffff"
   bordercolor="#666666"
   borderopacity="1"
   objecttolerance="10"
   gridtolerance="10"
   guidetolerance="10"
   inkscape:pageopacity="0"
   inkscape:pageshadow="2"
   inkscape:window-width="1696"
   inkscape:window-height="955"
   id="namedview8"
   showgrid="false"
   inkscape:zoom="2.3730469"
   inkscape:cx="169.62621"
   inkscape:cy="69.075815"
   inkscape:window-x="0"
   inkscape:window-y="0"
   inkscape:window-maximized="0"
   inkscape:current-layer="uSRoute" />
    <!-- Generated by PaintCode - http://www.paintcodeapp.com -->
    <path
   id="uSRoute-shield"
   fill-rule="evenodd"
   stroke="#000000"
   stroke-width="2"
   stroke-miterlimit="4"
   fill="#ffffff"
   d="m 19.999999,1.0668006 c -1.882057,1.162931 -4.096968,1.832746 -6.47214,1.832746 -2.375173,0 -4.5941929,-0.669815 -6.4762499,-1.832746 l -5.95437,5.946151 c 1.097182,1.557423 1.725904,3.4559164 1.725904,5.5023464 0,1.475237 -0.304088,2.9176 -0.904045,4.166826 -0.517771,1.080744 -0.821859,2.243675 -0.821859,3.521666 0,4.569537 3.723022,8.276122 8.300777,8.276122 H 14.56751 c 2.194364,0 4.150389,1.006777 5.432489,2.584747 1.282101,-1.57797 3.238125,-2.584747 5.432489,-2.584747 h 5.169494 c 4.577756,0 8.300778,-3.706585 8.300778,-8.276122 0,-1.277991 -0.304088,-2.486124 -0.82186,-3.562759 -0.599957,-1.249226 -0.904045,-2.650496 -0.904045,-4.125733 0,-2.04643 0.628723,-3.9449234 1.725905,-5.5023464 l -5.95437,-5.946151 c -1.882057,1.162931 -4.101077,1.832746 -6.47625,1.832746 -2.375173,0 -4.590083,-0.669815 -6.472141,-1.832746 z m 0,0"
   style="stroke-width:1.68481;stroke-miterlimit:4;stroke-dasharray:none" />
    
    
</svg>
